<?xml version="1.0" encoding="UTF-8"?>
<svg version="1.1" xmlns="http://www.w3.org/2000/svg" width="500" height="500">
<path d="M0 0 C165 0 330 0 500 0 C500 165 500 330 500 500 C335 500 170 500 0 500 C0 335 0 170 0 0 Z " fill="#F41D2A" transform="translate(0,0)"/>
<path d="M0 0 C0.6997142 -0.00365067 1.39942841 -0.00730133 2.12034607 -0.01106262 C4.43944428 -0.01918167 6.75784579 -0.00553237 9.0769043 0.0090332 C10.69817606 0.00955229 12.31944846 0.00903271 13.9407196 0.00752258 C17.34794455 0.00761241 20.75493345 0.01805074 24.16210938 0.03613281 C28.49118067 0.05862176 32.8199011 0.05940136 37.14901447 0.05261517 C40.5046032 0.04923932 43.86011473 0.0559757 47.21568871 0.0657444 C48.80898825 0.06954984 50.40229647 0.07076434 51.99559975 0.06915855 C64.68142966 0.06702422 77.52404595 0.33270055 89.46362305 5.12231445 C90.13643311 5.38544434 90.80924316 5.64857422 91.50244141 5.91967773 C96.73013272 8.04983032 101.03558868 10.4524784 105.08862305 14.37231445 C105.69963867 14.9446582 106.3106543 15.51700195 106.94018555 16.10668945 C116.01981683 25.45677784 117.78779707 35.62060221 117.61010742 48.2175293 C117.11710347 61.31574789 113.47518265 72.06722426 103.96362305 81.47387695 C101.11718621 84.01683339 98.26657185 86.25368191 95.08862305 88.37231445 C96.00643555 88.78481445 96.92424805 89.19731445 97.86987305 89.62231445 C110.59613707 95.52573273 117.60820128 102.09793648 123.08862305 115.37231445 C127.13903353 129.23375875 124.13029638 145.29488807 117.40112305 157.68481445 C109.36206319 170.02337149 96.91897236 175.5807544 82.94018555 178.8293457 C76.89791985 179.97985931 71.03610344 180.52139826 64.89013672 180.51757812 C64.1022879 180.52093674 63.31443909 180.52429535 62.50271606 180.52775574 C59.92065827 180.53719038 57.33866571 180.53920433 54.7565918 180.5402832 C52.95534743 180.54349842 51.15410332 180.5468627 49.3528595 180.55036926 C45.58972568 180.55633988 41.82661478 180.55821103 38.06347656 180.55761719 C33.23341313 180.55751509 28.40349513 180.57122539 23.5734663 180.5883894 C19.85982074 180.59947934 16.14621086 180.60153741 12.43255043 180.60100746 C10.65069383 180.60218989 8.86883638 180.60662628 7.08699608 180.61433983 C4.60460356 180.62408932 2.12253395 180.62128305 -0.35986328 180.61523438 C-1.09908524 180.62085388 -1.83830719 180.62647339 -2.59992981 180.63226318 C-7.68305348 180.60063793 -7.68305348 180.60063793 -9.91137695 178.37231445 C-10.16585255 175.40155888 -10.16585255 175.40155888 -10.17207336 171.50831604 C-10.17589891 170.79410222 -10.17972446 170.07988841 -10.18366593 169.34403175 C-10.19402627 166.93875337 -10.18999812 164.53371236 -10.18603516 162.12841797 C-10.19037997 160.40887225 -10.19556234 158.68932847 -10.20152283 156.9697876 C-10.21494909 152.29008008 -10.21548747 147.61045314 -10.21295953 142.9307301 C-10.21189225 139.02894051 -10.21676694 135.12716739 -10.22156495 131.22538131 C-10.23267272 122.02296312 -10.23309044 112.82058573 -10.22705078 103.61816406 C-10.22100897 94.11372532 -10.23332436 84.60943455 -10.25462085 75.10502106 C-10.27221412 66.95467322 -10.2782418 58.80437256 -10.27498311 50.65400642 C-10.27316644 45.78185026 -10.27584446 40.90979963 -10.28969765 36.0376606 C-10.30223445 31.45679651 -10.30037144 26.87616371 -10.28728676 22.29530334 C-10.28491233 20.61143861 -10.2876865 18.9275578 -10.29590988 17.24371147 C-10.30630635 14.94996803 -10.29833484 12.65701092 -10.28559875 10.36329651 C-10.2857665 9.07814935 -10.28593424 7.79300219 -10.28610706 6.46891117 C-9.91137695 3.37231445 -9.91137695 3.37231445 -8.58023071 1.45876694 C-5.83330697 -0.32952764 -3.23204547 -0.00160726 0 0 Z " fill="#FEFDFD" transform="translate(276.911376953125,159.627685546875)"/>
<path d="M0 0 C3.125 0.6875 3.125 0.6875 5.40625 3.828125 C8.66322366 9.34577149 11.22357054 15.20035844 13.82461548 21.04620361 C15.46009253 24.72016152 17.1162685 28.38480136 18.76953125 32.05078125 C19.12003036 32.82923401 19.47052948 33.60768677 19.83164978 34.409729 C23.96454513 43.57594611 28.20094859 52.69385727 32.4375 61.8125 C33.24414206 63.55017315 34.05070091 65.28788493 34.85717773 67.02563477 C36.07337094 69.64620028 37.28958709 72.26675503 38.50605774 74.88719177 C49.27920422 98.09715361 60.00787373 121.32841834 70.61401367 144.61523438 C71.25307478 146.01823721 71.89215321 147.42123216 72.53125 148.82421875 C72.8381929 149.49814667 73.1451358 150.17207458 73.46138 150.86642456 C75.399598 155.11568605 77.36368142 159.35205392 79.34375 163.58203125 C79.82005859 164.60675537 80.29636719 165.63147949 80.78710938 166.68725586 C81.64527358 168.5315259 82.51054385 170.37251567 83.38476562 172.20922852 C86.68804401 179.34150406 86.68804401 179.34150406 86.125 183.6875 C82.82053107 185.33973447 79.13746106 184.87209463 75.50390625 184.890625 C74.220355 184.89917511 74.220355 184.89917511 72.91087341 184.90789795 C71.09936766 184.91735099 69.28784468 184.92388314 67.47631836 184.92773438 C64.70200734 184.9374492 61.92843422 184.96847291 59.15429688 185 C57.39583774 185.00652909 55.6373733 185.01177993 53.87890625 185.015625 C53.04758682 185.0279718 52.2162674 185.0403186 51.35975647 185.05303955 C45.46769751 185.03019751 45.46769751 185.03019751 42.125 181.6875 C39.485 175.0875 36.845 168.4875 34.125 161.6875 C-0.03 161.1925 -0.03 161.1925 -34.875 160.6875 C-35.865 163.6575 -36.855 166.6275 -37.875 169.6875 C-38.68868127 172.00698776 -39.52002816 174.32041244 -40.375 176.625 C-40.7771875 177.72714844 -41.179375 178.82929688 -41.59375 179.96484375 C-42.875 182.6875 -42.875 182.6875 -45.875 184.6875 C-48.82521371 184.88382284 -51.67877516 184.96749191 -54.62890625 184.953125 C-55.48556381 184.95503845 -56.34222137 184.9569519 -57.22483826 184.95892334 C-59.03457941 184.96028373 -60.84433036 184.95659747 -62.65405273 184.94824219 C-65.43039749 184.93752741 -68.2060971 184.94814904 -70.98242188 184.9609375 C-72.73958477 184.95961614 -74.49674726 184.95705422 -76.25390625 184.953125 C-77.08724991 184.95717346 -77.92059357 184.96122192 -78.77919006 184.96539307 C-84.64507269 184.91742731 -84.64507269 184.91742731 -86.875 182.6875 C-86.54927119 177.89146894 -84.87311592 174.11993792 -82.8046875 169.82421875 C-82.49211502 169.16858948 -82.17954254 168.51296021 -81.85749817 167.83746338 C-81.18196706 166.42201358 -80.50314798 165.00812921 -79.82138062 163.59567261 C-77.97285112 159.76418756 -76.15012851 155.92042703 -74.32421875 152.078125 C-73.76112755 150.89554359 -73.76112755 150.89554359 -73.18666077 149.68907166 C-69.55232421 142.0426363 -66.04551903 134.34124681 -62.5625 126.625 C-56.96282002 114.23943077 -51.28567054 101.89148745 -45.5625 89.5625 C-45.16452209 88.70509216 -44.76654419 87.84768433 -44.35650635 86.96429443 C-42.74184533 83.48581596 -41.12714813 80.00735431 -39.51223755 76.5289917 C-35.52359587 67.93546505 -31.55133357 59.33441109 -27.58270264 50.73162842 C-26.45128057 48.27986218 -25.31879434 45.82859011 -24.18603516 43.37744141 C-21.13090272 36.76406584 -18.0785304 30.14978316 -15.0684967 23.51573181 C-14.21606031 21.63715907 -13.36120222 19.75970792 -12.50561523 17.88256836 C-11.49426593 15.66068605 -10.48816814 13.43640224 -9.48852539 11.20922852 C-9.05016357 10.24815186 -8.61180176 9.2870752 -8.16015625 8.296875 C-7.78769775 7.47155273 -7.41523926 6.64623047 -7.03149414 5.79589844 C-5.15748762 2.37940692 -3.82759834 0.91529526 0 0 Z " fill="#FEFDFD" transform="translate(176.875,155.3125)"/>
<path d="M0 0 C5.754375 -0.061875 11.50875 -0.12375 17.4375 -0.1875 C19.23501709 -0.21481201 21.03253418 -0.24212402 22.88452148 -0.27026367 C40.60606971 -0.43076803 40.60606971 -0.43076803 47.15625 4.68359375 C47.5996875 5.26238281 48.043125 5.84117187 48.5 6.4375 C48.9640625 7.01371094 49.428125 7.58992188 49.90625 8.18359375 C53.36594725 13.9291624 52.6107885 21.57594214 52 28 C50.63826436 32.34426883 48.68580024 34.99324364 44.76953125 37.33203125 C42.53728089 38.36258076 40.33245877 39.22688164 38 40 C37.01 40.33 36.02 40.66 35 41 C32.34130872 41.0849393 29.70893227 41.11602423 27.05078125 41.09765625 C26.36576538 41.09664917 25.68074951 41.09564209 24.97497559 41.09460449 C22.42079998 41.08938007 19.86664828 41.07541879 17.3125 41.0625 C11.599375 41.041875 5.88625 41.02125 0 41 C0 27.47 0 13.94 0 0 Z " fill="#F41F2C" transform="translate(308,264)"/>
<path d="M0 0 C8.1365625 -0.0928125 8.1365625 -0.0928125 16.4375 -0.1875 C18.13060303 -0.21481201 19.82370605 -0.24212402 21.56811523 -0.27026367 C38.75367857 -0.43319605 38.75367857 -0.43319605 45.9375 5.375 C50.09248895 10.66316776 50.71197922 15.4278841 50 22 C48.80853395 26.93980085 47.12665187 30.84432504 43 34 C38.42650451 36.392092 34.22843978 36.25977075 29.19921875 36.1953125 C27.9446563 36.19106766 27.9446563 36.19106766 26.66474915 36.18673706 C24.00551774 36.1755832 21.34662882 36.15048763 18.6875 36.125 C16.87956217 36.11496399 15.07161904 36.10583923 13.26367188 36.09765625 C8.84221128 36.07736501 4.42148695 36.03820776 0 36 C0 24.12 0 12.24 0 0 Z " fill="#F41D2A" transform="translate(308,196)"/>
<path d="M0 0 C2.26841981 2.8141142 3.75473883 5.45722606 5.0847168 8.81274414 C5.46488449 9.76375504 5.84505219 10.71476593 6.23674011 11.69459534 C6.63685806 12.71448044 7.03697601 13.73436554 7.44921875 14.78515625 C8.07543877 16.36410927 8.07543877 16.36410927 8.71430969 17.97496033 C9.59384898 20.19705566 10.47034043 22.42035946 11.34399414 24.64477539 C12.68506529 28.05630638 14.03809973 31.4629138 15.39257812 34.86914062 C16.24551055 37.028362 17.09774801 39.18785805 17.94921875 41.34765625 C18.35540939 42.36956558 18.76160004 43.39147491 19.18009949 44.4443512 C19.5508107 45.39220993 19.92152191 46.34006866 20.3034668 47.31665039 C20.63195114 48.15063858 20.96043549 48.98462677 21.2988739 49.84388733 C22 52 22 52 22 55 C7.81 55 -6.38 55 -21 55 C-19.2247463 49.08248767 -17.58011317 43.6394288 -15.29296875 37.98828125 C-15.04509109 37.37212448 -14.79721344 36.75596771 -14.54182434 36.12113953 C-13.76116626 34.18323318 -12.97453916 32.24782224 -12.1875 30.3125 C-11.67341662 29.03987969 -11.159743 27.76709378 -10.64648438 26.49414062 C-9.62354292 23.95834881 -8.59841533 21.42345746 -7.57177734 18.88916016 C-5.0270638 12.60112303 -2.51494774 6.29998613 0 0 Z " fill="#F4212D" transform="translate(176,230)"/>
</svg>
